<?xml version="1.0" encoding="utf-8" ?>
<svg baseProfile="full" height="600" version="1.1" width="800" xmlns="http://www.w3.org/2000/svg" xmlns:ev="http://www.w3.org/2001/xml-events" xmlns:xlink="http://www.w3.org/1999/xlink"><defs /><rect fill="#e6f2ff" height="600" width="800" x="0" y="0" /><rect fill="#0000FF" height="42.666666666666664" opacity="0.8" stroke="none" width="42.666666666666664" x="736.0" y="-21.333333333333332" /><rect fill="#0078FF" height="42.666666666666664" opacity="0.8" stroke="none" width="42.666666666666664" x="768.0" y="-21.333333333333332" /><rect fill="#46AAFA" height="42.666666666666664" opacity="0.8" stroke="none" width="42.666666666666664" x="32.0" y="-21.333333333333332" /><rect fill="#46AAFA" height="42.666666666666664" opacity="0.8" stroke="none" width="42.666666666666664" x="565.3333333333333" y="-21.333333333333332" /><rect fill="#46AAFA" height="42.666666666666664" opacity="0.8" stroke="none" width="42.666666666666664" x="469.3333333333333" y="-13.333333333333332" /><rect fill="#46AAFA" height="42.666666666666664" opacity="0.8" stroke="none" width="42.666666666666664" x="362.6666666666667" y="-5.333333333333332" /><rect fill="#46AAFA" height="42.666666666666664" opacity="0.8" stroke="none" width="42.666666666666664" x="277.33333333333337" y="2.666666666666668" /><rect fill="#46AAFA" height="42.666666666666664" opacity="0.8" stroke="none" width="42.666666666666664" x="181.33333333333334" y="10.666666666666668" /><rect fill="#46AAFA" height="42.666666666666664" opacity="0.8" stroke="none" width="42.666666666666664" x="74.66666666666667" y="18.666666666666668" /><rect fill="#46AAFA" height="42.666666666666664" opacity="0.8" stroke="none" width="42.666666666666664" x="607.9999999999999" y="18.666666666666668" /><rect fill="#46AAFA" height="42.666666666666664" opacity="0.8" stroke="none" width="42.666666666666664" x="533.3333333333334" y="26.666666666666668" /><rect fill="#46AAFA" height="42.666666666666664" opacity="0.8" stroke="none" width="42.666666666666664" x="416.0" y="34.66666666666667" /><rect fill="#46AAFA" height="42.666666666666664" opacity="0.8" stroke="none" width="42.666666666666664" x="362.6666666666667" y="42.66666666666667" /><rect fill="#46AAFA" height="42.666666666666664" opacity="0.8" stroke="none" width="42.666666666666664" x="266.6666666666667" y="50.66666666666667" /><rect fill="#46AAFA" height="42.666666666666664" opacity="0.8" stroke="none" width="42.666666666666664" x="181.33333333333334" y="58.66666666666667" /><rect fill="#46AAFA" height="42.666666666666664" opacity="0.8" stroke="none" width="42.666666666666664" x="149.33333333333334" y="66.66666666666667" /><rect fill="#46AAFA" height="42.666666666666664" opacity="0.8" stroke="none" width="42.666666666666664" x="106.66666666666667" y="74.66666666666667" /><rect fill="#46AAFA" height="42.666666666666664" opacity="0.8" stroke="none" width="42.666666666666664" x="757.3333333333334" y="74.66666666666667" /><rect fill="#46AAFA" height="42.666666666666664" opacity="0.8" stroke="none" width="42.666666666666664" x="714.6666666666666" y="82.66666666666667" /><rect fill="#46AAFA" height="42.666666666666664" opacity="0.8" stroke="none" width="42.666666666666664" x="586.6666666666666" y="90.66666666666667" /><rect fill="#46AAFA" height="42.666666666666664" opacity="0.8" stroke="none" width="42.666666666666664" x="522.6666666666666" y="98.66666666666667" /><rect fill="#46AAFA" height="42.666666666666664" opacity="0.8" stroke="none" width="42.666666666666664" x="511.99999999999994" y="106.66666666666667" /><rect fill="#46AAFA" height="42.666666666666664" opacity="0.8" stroke="none" width="42.666666666666664" x="576.0" y="114.66666666666667" /><rect fill="#46AAFA" height="42.666666666666664" opacity="0.8" stroke="none" width="42.666666666666664" x="703.9999999999999" y="122.66666666666667" /><rect fill="#46AAFA" height="42.666666666666664" opacity="0.8" stroke="none" width="42.666666666666664" x="298.6666666666667" y="138.66666666666666" /><rect fill="#46AAFA" height="42.666666666666664" opacity="0.8" stroke="none" width="42.666666666666664" x="725.3333333333333" y="146.66666666666669" /><rect fill="#46AAFA" height="42.666666666666664" opacity="0.8" stroke="none" width="42.666666666666664" x="693.3333333333333" y="162.66666666666666" /><rect fill="#46AAFA" height="42.666666666666664" opacity="0.8" stroke="none" width="42.666666666666664" x="703.9999999999999" y="178.66666666666666" /><rect fill="#46AAFA" height="42.666666666666664" opacity="0.8" stroke="none" width="42.666666666666664" x="650.6666666666666" y="202.66666666666666" /><rect fill="#46AAFA" height="42.666666666666664" opacity="0.8" stroke="none" width="42.666666666666664" x="640.0" y="234.66666666666666" /><rect fill="#46AAFA" height="42.666666666666664" opacity="0.8" stroke="none" width="42.666666666666664" x="618.6666666666666" y="298.6666666666667" /><rect fill="#FF0000" height="42.666666666666664" opacity="0.8" stroke="none" width="42.666666666666664" x="64.00000000000001" y="130.66666666666666" /><rect fill="#FF0000" height="42.666666666666664" opacity="0.8" stroke="none" width="42.666666666666664" x="117.33333333333336" y="250.66666666666666" /><rect fill="#FF0000" height="42.666666666666664" opacity="0.8" stroke="none" width="42.666666666666664" x="362.6666666666667" y="298.6666666666667" /><rect fill="#FF0000" height="42.666666666666664" opacity="0.8" stroke="none" width="42.666666666666664" x="117.33333333333336" y="330.6666666666667" /><rect fill="#FF0000" height="42.666666666666664" opacity="0.8" stroke="none" width="42.666666666666664" x="234.66666666666666" y="346.6666666666667" /><rect fill="#FF0000" height="42.666666666666664" opacity="0.8" stroke="none" width="42.666666666666664" x="149.33333333333334" y="370.6666666666667" /><rect fill="#FF0000" height="42.666666666666664" opacity="0.8" stroke="none" width="42.666666666666664" x="234.66666666666666" y="386.66666666666674" /><rect fill="#FF0000" height="42.666666666666664" opacity="0.8" stroke="none" width="42.666666666666664" x="320.00000000000006" y="402.6666666666667" /><rect fill="#FF0000" height="42.666666666666664" opacity="0.8" stroke="none" width="42.666666666666664" x="277.33333333333337" y="426.6666666666667" /><rect fill="#FF0000" height="42.666666666666664" opacity="0.8" stroke="none" width="42.666666666666664" x="298.6666666666667" y="450.6666666666667" /><rect fill="#FF0000" height="42.666666666666664" opacity="0.8" stroke="none" width="42.666666666666664" x="352.0" y="474.6666666666667" /><rect fill="#FF9696" height="42.666666666666664" opacity="0.8" stroke="none" width="42.666666666666664" x="159.99999999999997" y="386.66666666666674" /><rect fill="#FF9696" height="42.666666666666664" opacity="0.8" stroke="none" width="42.666666666666664" x="266.6666666666667" y="506.6666666666667" /><rect fill="#F5A500" height="42.666666666666664" opacity="0.8" stroke="none" width="42.666666666666664" x="618.6666666666666" y="-21.333333333333332" /><rect fill="#F5A500" height="42.666666666666664" opacity="0.8" stroke="none" width="42.666666666666664" x="74.66666666666667" y="66.66666666666667" /><rect fill="#F5A500" height="42.666666666666664" opacity="0.8" stroke="none" width="42.666666666666664" x="149.33333333333334" y="202.66666666666666" /><rect fill="#F5A500" height="42.666666666666664" opacity="0.8" stroke="none" width="42.666666666666664" x="607.9999999999999" y="210.66666666666666" /><rect fill="#F5A500" height="42.666666666666664" opacity="0.8" stroke="none" width="42.666666666666664" x="170.66666666666666" y="226.66666666666666" /><rect fill="#F5A500" height="42.666666666666664" opacity="0.8" stroke="none" width="42.666666666666664" x="277.33333333333337" y="234.66666666666666" /><rect fill="#F5A500" height="42.666666666666664" opacity="0.8" stroke="none" width="42.666666666666664" x="405.33333333333337" y="242.66666666666666" /><rect fill="#F5A500" height="42.666666666666664" opacity="0.8" stroke="none" width="42.666666666666664" x="202.66666666666669" y="258.6666666666667" /><rect fill="#F5A500" height="42.666666666666664" opacity="0.8" stroke="none" width="42.666666666666664" x="341.3333333333333" y="266.6666666666667" /><rect fill="#F5A500" height="42.666666666666664" opacity="0.8" stroke="none" width="42.666666666666664" x="469.3333333333333" y="274.6666666666667" /><rect fill="#F5A500" height="42.666666666666664" opacity="0.8" stroke="none" width="42.666666666666664" x="170.66666666666666" y="290.6666666666667" /><rect fill="#F5A500" height="42.666666666666664" opacity="0.8" stroke="none" width="42.666666666666664" x="277.33333333333337" y="298.6666666666667" /><rect fill="#F5A500" height="42.666666666666664" opacity="0.8" stroke="none" width="42.666666666666664" x="469.3333333333333" y="306.6666666666667" /><rect fill="#F5A500" height="42.666666666666664" opacity="0.8" stroke="none" width="42.666666666666664" x="618.6666666666666" y="314.66666666666674" /><rect fill="#F5A500" height="42.666666666666664" opacity="0.8" stroke="none" width="42.666666666666664" x="490.6666666666667" y="330.6666666666667" /><rect fill="#F5A500" height="42.666666666666664" opacity="0.8" stroke="none" width="42.666666666666664" x="394.6666666666667" y="346.6666666666667" /><rect fill="#F5A500" height="42.666666666666664" opacity="0.8" stroke="none" width="42.666666666666664" x="629.3333333333333" y="354.6666666666667" /><rect fill="#F5A500" height="42.666666666666664" opacity="0.8" stroke="none" width="42.666666666666664" x="565.3333333333333" y="370.6666666666667" /><rect fill="#F5A500" height="42.666666666666664" opacity="0.8" stroke="none" width="42.666666666666664" x="373.33333333333337" y="402.6666666666667" /><rect fill="#F5A500" height="42.666666666666664" opacity="0.8" stroke="none" width="42.666666666666664" x="213.33333333333331" y="530.6666666666666" /><rect fill="#FFDC64" height="42.666666666666664" opacity="0.8" stroke="none" width="42.666666666666664" x="170.66666666666666" y="322.6666666666667" /><rect fill="#FFDC64" height="42.666666666666664" opacity="0.8" stroke="none" width="42.666666666666664" x="384.00000000000006" y="450.6666666666667" /><rect fill="#FFDC64" height="42.666666666666664" opacity="0.8" stroke="none" width="42.666666666666664" x="362.6666666666667" y="514.6666666666666" /><rect fill="#FFDC64" height="42.666666666666664" opacity="0.8" stroke="none" width="42.666666666666664" x="234.66666666666666" y="570.6666666666666" /><rect fill="#FFFF00" height="42.666666666666664" opacity="0.8" stroke="none" width="42.666666666666664" x="202.66666666666669" y="538.6666666666666" /><rect fill="#C8C800" height="42.666666666666664" opacity="0.8" stroke="none" width="42.666666666666664" x="511.99999999999994" y="26.666666666666668" /><rect fill="#96FF96" height="42.666666666666664" opacity="0.8" stroke="none" width="42.666666666666664" x="607.9999999999999" y="34.66666666666667" /><rect fill="#96FF96" height="42.666666666666664" opacity="0.8" stroke="none" width="42.666666666666664" x="597.3333333333333" y="106.66666666666667" /><rect fill="#96FF96" height="42.666666666666664" opacity="0.8" stroke="none" width="42.666666666666664" x="544.0" y="130.66666666666666" /><rect fill="#96FF96" height="42.666666666666664" opacity="0.8" stroke="none" width="42.666666666666664" x="448.0" y="146.66666666666669" /><rect fill="#96FF96" height="42.666666666666664" opacity="0.8" stroke="none" width="42.666666666666664" x="650.6666666666666" y="154.66666666666666" /><rect fill="#96FF96" height="42.666666666666664" opacity="0.8" stroke="none" width="42.666666666666664" x="213.33333333333331" y="170.66666666666666" /><rect fill="#96FF96" height="42.666666666666664" opacity="0.8" stroke="none" width="42.666666666666664" x="373.33333333333337" y="178.66666666666666" /><rect fill="#96FF96" height="42.666666666666664" opacity="0.8" stroke="none" width="42.666666666666664" x="448.0" y="186.66666666666666" /><rect fill="#96FF96" height="42.666666666666664" opacity="0.8" stroke="none" width="42.666666666666664" x="309.33333333333337" y="202.66666666666666" /><rect fill="#96FF96" height="42.666666666666664" opacity="0.8" stroke="none" width="42.666666666666664" x="533.3333333333334" y="226.66666666666666" /><rect fill="#64C864" height="42.666666666666664" opacity="0.8" stroke="none" width="42.666666666666664" x="640.0" y="-21.333333333333332" /><rect fill="#64C864" height="42.666666666666664" opacity="0.8" stroke="none" width="42.666666666666664" x="106.66666666666667" y="130.66666666666666" /><rect fill="#64C864" height="42.666666666666664" opacity="0.8" stroke="none" width="42.666666666666664" x="533.3333333333334" y="378.6666666666667" /><rect fill="#64C864" height="42.666666666666664" opacity="0.8" stroke="none" width="42.666666666666664" x="533.3333333333334" y="426.6666666666667" /><rect fill="#64C864" height="42.666666666666664" opacity="0.8" stroke="none" width="42.666666666666664" x="469.3333333333333" y="490.6666666666667" /><rect fill="#C8FF50" height="42.666666666666664" opacity="0.8" stroke="none" width="42.666666666666664" x="554.6666666666666" y="434.6666666666667" /><rect fill="#64FF50" height="42.666666666666664" opacity="0.8" stroke="none" width="42.666666666666664" x="533.3333333333334" y="458.6666666666667" /><rect fill="#4B50B4" height="42.666666666666664" opacity="0.8" stroke="none" width="42.666666666666664" x="480.00000000000006" y="458.6666666666667" /><rect fill="#B2B2B2" height="42.666666666666664" opacity="0.8" stroke="none" width="42.666666666666664" x="490.6666666666667" y="466.6666666666667" /><text fill="#333" font-family="Arial, sans-serif" font-size="16px" font-weight="bold" text-anchor="middle" x="400" y="25">1991-2020 (Baseline)</text></svg>