<svg width="1400" height="800" xmlns="http://www.w3.org/2000/svg">
  <!-- Background -->
  <rect width="1400" height="800" fill="#f8f9fa"/>
  
  <!-- Title -->
  <text x="700" y="30" font-family="Arial, sans-serif" font-size="26" font-weight="bold" text-anchor="middle" fill="#2c3e50">
    Integrated Climate Risk Evolution: Malawi, South Africa & Zimbabwe
  </text>
  <text x="700" y="55" font-family="Arial, sans-serif" font-size="16" text-anchor="middle" fill="#5a6c7d">
    Temperature, precipitation, and vulnerability trajectories 1990-2060
  </text>
  
  <!-- Timeline axis -->
  <g transform="translate(100, 100)">
    <line x1="0" y1="300" x2="1200" y2="300" stroke="#333333" stroke-width="2"/>
    
    <!-- Time markers -->
    <line x1="100" y1="295" x2="100" y2="305" stroke="#333333" stroke-width="2"/>
    <text x="100" y="325" font-family="Arial" font-size="12" font-weight="bold" text-anchor="middle" fill="#2c3e50">1990</text>
    
    <line x1="400" y1="295" x2="400" y2="305" stroke="#333333" stroke-width="2"/>
    <text x="400" y="325" font-family="Arial" font-size="12" font-weight="bold" text-anchor="middle" fill="#2c3e50">2020</text>
    
    <line x1="700" y1="295" x2="700" y2="305" stroke="#333333" stroke-width="2"/>
    <text x="700" y="325" font-family="Arial" font-size="12" font-weight="bold" text-anchor="middle" fill="#2c3e50">2040</text>
    
    <line x1="1000" y1="295" x2="1000" y2="305" stroke="#333333" stroke-width="2"/>
    <text x="1000" y="325" font-family="Arial" font-size="12" font-weight="bold" text-anchor="middle" fill="#2c3e50">2060</text>
    
    <!-- Country tracks -->

    <!-- South Africa Temperature Trajectory -->
    <path d="M 100 140.0 Q 250 126.0, 400 126.0 
             Q 550 108.0, 700 108.0
             Q 850 86.0, 1000 86.0"
          fill="none" stroke="#d73027" stroke-width="3" opacity="0.8"/>
    
    <!-- Temperature points -->
    <circle cx="100" cy="140.0" r="4" fill="#d73027"/>
    <circle cx="400" cy="126.0" r="5" fill="#d73027"/>
    <circle cx="700" cy="108.0" r="6" fill="#d73027"/>
    <circle cx="1000" cy="86.0" r="7" fill="#d73027"/>
    
    <!-- Temperature labels -->
    <text x="1020" y="90.0" font-family="Arial" font-size="11" fill="#d73027">
      +3.2°C
    </text>

    <!-- South Africa Precipitation Trajectory -->
    <path d="M 100 150 Q 250 158, 400 158 
             Q 550 165, 700 165
             Q 850 172, 1000 172"
          fill="none" stroke="#8c510a" stroke-width="3" opacity="0.8"/>
    
    <!-- Precipitation points -->
    <circle cx="100" cy="150" r="4" fill="#8c510a"/>
    <circle cx="400" cy="158" r="5" fill="#8c510a"/>
    <circle cx="700" cy="165" r="6" fill="#8c510a"/>
    <circle cx="1000" cy="172" r="7" fill="#8c510a"/>
    
    <!-- Precipitation labels -->
    <text x="1020" y="176" font-family="Arial" font-size="11" fill="#8c510a">
      -22%
    </text>

    <text x="50" y="155" font-family="Arial" font-size="14" font-weight="bold" text-anchor="end" fill="#2c3e50">
      South Africa
    </text>
    <text x="50" y="170" font-family="Arial" font-size="11" text-anchor="end" fill="#5a6c7d">
      Vuln: 0.422
    </text>

    <rect x="550" y="70" width="300" height="100" fill="#ffeeee" opacity="0.3" rx="5"/>
    <rect x="850" y="50" width="200" height="120" fill="#ffdddd" opacity="0.5" rx="5"/>

    <!-- Zimbabwe Temperature Trajectory -->
    <path d="M 100 190.0 Q 250 178.0, 400 178.0 
             Q 550 160.0, 700 160.0
             Q 850 138.0, 1000 138.0"
          fill="none" stroke="#d73027" stroke-width="3" opacity="0.8"/>
    
    <!-- Temperature points -->
    <circle cx="100" cy="190.0" r="4" fill="#d73027"/>
    <circle cx="400" cy="178.0" r="5" fill="#d73027"/>
    <circle cx="700" cy="160.0" r="6" fill="#d73027"/>
    <circle cx="1000" cy="138.0" r="7" fill="#d73027"/>
    
    <!-- Temperature labels -->
    <text x="1020" y="142.0" font-family="Arial" font-size="11" fill="#d73027">
      +3.1°C
    </text>

    <!-- Zimbabwe Precipitation Trajectory -->
    <path d="M 100 200 Q 250 212, 400 212 
             Q 550 218, 700 218
             Q 850 228, 1000 228"
          fill="none" stroke="#8c510a" stroke-width="3" opacity="0.8"/>
    
    <!-- Precipitation points -->
    <circle cx="100" cy="200" r="4" fill="#8c510a"/>
    <circle cx="400" cy="212" r="5" fill="#8c510a"/>
    <circle cx="700" cy="218" r="6" fill="#8c510a"/>
    <circle cx="1000" cy="228" r="7" fill="#8c510a"/>
    
    <!-- Precipitation labels -->
    <text x="1020" y="232" font-family="Arial" font-size="11" fill="#8c510a">
      -28%
    </text>

    <text x="50" y="205" font-family="Arial" font-size="14" font-weight="bold" text-anchor="end" fill="#2c3e50">
      Zimbabwe
    </text>
    <text x="50" y="220" font-family="Arial" font-size="11" text-anchor="end" fill="#5a6c7d">
      Vuln: 0.523
    </text>

    <rect x="550" y="120" width="300" height="100" fill="#ffeeee" opacity="0.3" rx="5"/>
    <rect x="850" y="100" width="200" height="120" fill="#ffdddd" opacity="0.5" rx="5"/>

    <!-- Malawi Temperature Trajectory -->
    <path d="M 100 240.0 Q 250 230.0, 400 230.0 
             Q 550 214.0, 700 214.0
             Q 850 192.0, 1000 192.0"
          fill="none" stroke="#d73027" stroke-width="3" opacity="0.8"/>
    
    <!-- Temperature points -->
    <circle cx="100" cy="240.0" r="4" fill="#d73027"/>
    <circle cx="400" cy="230.0" r="5" fill="#d73027"/>
    <circle cx="700" cy="214.0" r="6" fill="#d73027"/>
    <circle cx="1000" cy="192.0" r="7" fill="#d73027"/>
    
    <!-- Temperature labels -->
    <text x="1020" y="196.0" font-family="Arial" font-size="11" fill="#d73027">
      +2.9°C
    </text>

    <!-- Malawi Precipitation Trajectory -->
    <path d="M 100 250 Q 250 257, 400 257 
             Q 550 262, 700 262
             Q 850 270, 1000 270"
          fill="none" stroke="#8c510a" stroke-width="3" opacity="0.8"/>
    
    <!-- Precipitation points -->
    <circle cx="100" cy="250" r="4" fill="#8c510a"/>
    <circle cx="400" cy="257" r="5" fill="#8c510a"/>
    <circle cx="700" cy="262" r="6" fill="#8c510a"/>
    <circle cx="1000" cy="270" r="7" fill="#8c510a"/>
    
    <!-- Precipitation labels -->
    <text x="1020" y="274" font-family="Arial" font-size="11" fill="#8c510a">
      -20%
    </text>

    <text x="50" y="255" font-family="Arial" font-size="14" font-weight="bold" text-anchor="end" fill="#2c3e50">
      Malawi
    </text>
    <text x="50" y="270" font-family="Arial" font-size="11" text-anchor="end" fill="#5a6c7d">
      Vuln: 0.548
    </text>

    <rect x="550" y="170" width="300" height="100" fill="#ffeeee" opacity="0.3" rx="5"/>
    <rect x="850" y="150" width="200" height="120" fill="#ffdddd" opacity="0.5" rx="5"/>

    <!-- Critical thresholds -->
    <line x1="0" y1="150" x2="1200" y2="150" stroke="#ff0000" stroke-width="1" stroke-dasharray="5,5" opacity="0.5"/>
    <text x="1210" y="155" font-family="Arial" font-size="10" fill="#ff0000">+3.0°C threshold</text>
    
    <line x1="0" y1="100" x2="1200" y2="100" stroke="#ff0000" stroke-width="1" stroke-dasharray="5,5" opacity="0.5"/>
    <text x="1210" y="105" font-family="Arial" font-size="10" fill="#ff0000">+4.0°C threshold</text>
    
    <!-- Risk acceleration phases -->
    <text x="700" y="90" font-family="Arial" font-size="12" font-weight="bold" text-anchor="middle" fill="#ff6600">
      Rapid Acceleration Phase
    </text>
    <text x="950" y="90" font-family="Arial" font-size="12" font-weight="bold" text-anchor="middle" fill="#ff0000">
      Critical Risk Phase
    </text>
  </g>
  
  <!-- Legend -->
  <g transform="translate(1100, 400)">
    <rect x="-20" y="-10" width="280" height="120" fill="white" stroke="#cccccc" stroke-width="1" rx="5"/>
    
    <text x="120" y="10" font-family="Arial" font-size="14" font-weight="bold" text-anchor="middle" fill="#2c3e50">
      Climate Indicators
    </text>
    
    <line x1="10" y1="30" x2="40" y2="30" stroke="#d73027" stroke-width="3"/>
    <text x="50" y="35" font-family="Arial" font-size="12" fill="#2c3e50">Temperature Anomaly (°C)</text>
    
    <line x1="10" y1="55" x2="40" y2="55" stroke="#8c510a" stroke-width="3"/>
    <text x="50" y="60" font-family="Arial" font-size="12" fill="#2c3e50">Precipitation Change (%)</text>
    
    <rect x="10" y="75" width="30" height="15" fill="#ffeeee" opacity="0.5"/>
    <text x="50" y="87" font-family="Arial" font-size="11" fill="#2c3e50">Risk acceleration zone</text>
    
    <rect x="10" y="95" width="30" height="15" fill="#ffdddd" opacity="0.7"/>
    <text x="50" y="107" font-family="Arial" font-size="11" fill="#2c3e50">Critical risk zone</text>
  </g>
  
  <!-- Impact Projections -->
  <g transform="translate(100, 450)">
    <rect x="0" y="0" width="1200" height="200" fill="white" stroke="#333333" stroke-width="2" rx="5"/>
    
    <text x="600" y="30" font-family="Arial" font-size="18" font-weight="bold" text-anchor="middle" fill="#2c3e50">
      Projected Impacts by 2050-2060
    </text>
    
    <!-- Three columns for the countries -->
    <g transform="translate(50, 60)">
      <text x="150" y="0" font-family="Arial" font-size="16" font-weight="bold" text-anchor="middle" fill="#d73027">South Africa</text>
      <text x="20" y="25" font-family="Arial" font-size="12" fill="#2c3e50">• Heat days >35°C: +45/year</text>
      <text x="20" y="45" font-family="Arial" font-size="12" fill="#2c3e50">• Drought frequency: +60%</text>
      <text x="20" y="65" font-family="Arial" font-size="12" fill="#2c3e50">• Crop yield decline: 20-30%</text>
      <text x="20" y="85" font-family="Arial" font-size="12" fill="#2c3e50">• Water stress: Severe</text>
      <text x="20" y="105" font-family="Arial" font-size="12" fill="#2c3e50">• Heat-related mortality: +15%</text>
      <text x="20" y="125" font-family="Arial" font-size="11" font-style="italic" fill="#666">Adaptation readiness: Moderate</text>
    </g>
    
    <g transform="translate(450, 60)">
      <text x="150" y="0" font-family="Arial" font-size="16" font-weight="bold" text-anchor="middle" fill="#d73027">Zimbabwe</text>
      <text x="20" y="25" font-family="Arial" font-size="12" fill="#2c3e50">• Heat days >35°C: +50/year</text>
      <text x="20" y="45" font-family="Arial" font-size="12" fill="#2c3e50">• Drought frequency: +70%</text>
      <text x="20" y="65" font-family="Arial" font-size="12" fill="#2c3e50">• Crop yield decline: 25-35%</text>
      <text x="20" y="85" font-family="Arial" font-size="12" fill="#2c3e50">• Water stress: Critical</text>
      <text x="20" y="105" font-family="Arial" font-size="12" fill="#2c3e50">• Food insecurity: High risk</text>
      <text x="20" y="125" font-family="Arial" font-size="11" font-style="italic" fill="#666">Adaptation readiness: Low</text>
    </g>
    
    <g transform="translate(850, 60)">
      <text x="150" y="0" font-family="Arial" font-size="16" font-weight="bold" text-anchor="middle" fill="#d73027">Malawi</text>
      <text x="20" y="25" font-family="Arial" font-size="12" fill="#2c3e50">• Heat days >35°C: +40/year</text>
      <text x="20" y="45" font-family="Arial" font-size="12" fill="#2c3e50">• Drought frequency: +55%</text>
      <text x="20" y="65" font-family="Arial" font-size="12" fill="#2c3e50">• Crop yield decline: 15-25%</text>
      <text x="20" y="85" font-family="Arial" font-size="12" fill="#2c3e50">• Water stress: High</text>
      <text x="20" y="105" font-family="Arial" font-size="12" fill="#2c3e50">• Malnutrition risk: Increased</text>
      <text x="20" y="125" font-family="Arial" font-size="11" font-style="italic" fill="#666">Adaptation readiness: Low</text>
    </g>
  </g>
  
  <!-- Data attribution -->
  <text x="700" y="780" font-family="Arial" font-size="10" text-anchor="middle" fill="#999999">
    Data: IPCC AR6 WGI/II, CMIP6 Multi-model Ensemble, ND-GAIN 2023, SADC Regional Climate Assessment
  </text>
</svg>