<?xml version="1.0" encoding="utf-8" standalone="no"?>
<!DOCTYPE svg PUBLIC "-//W3C//DTD SVG 1.1//EN"
  "http://www.w3.org/Graphics/SVG/1.1/DTD/svg11.dtd">
<svg xmlns:xlink="http://www.w3.org/1999/xlink" width="983.809864pt" height="712.545375pt" viewBox="0 0 983.809864 712.545375" xmlns="http://www.w3.org/2000/svg" version="1.1">
 <metadata>
  <rdf:RDF xmlns:dc="http://purl.org/dc/elements/1.1/" xmlns:cc="http://creativecommons.org/ns#" xmlns:rdf="http://www.w3.org/1999/02/22-rdf-syntax-ns#">
   <cc:Work>
    <dc:type rdf:resource="http://purl.org/dc/dcmitype/StillImage"/>
    <dc:date>2025-08-22T17:01:32.236306</dc:date>
    <dc:format>image/svg+xml</dc:format>
    <dc:creator>
     <cc:Agent>
      <dc:title>Matplotlib v3.10.5, https://matplotlib.org/</dc:title>
     </cc:Agent>
    </dc:creator>
   </cc:Work>
  </rdf:RDF>
 </metadata>
 <defs>
  <style type="text/css">*{stroke-linejoin: round; stroke-linecap: butt}</style>
 </defs>
 <g id="figure_1">
  <g id="patch_1">
   <path d="M 0 712.545375 
L 983.809864 712.545375 
L 983.809864 0 
L 0 0 
z
" style="fill: #ffffff"/>
  </g>
  <g id="axes_1">
   <g id="patch_2">
    <path d="M 49.354063 674.617875 
L 959.451743 674.617875 
L 959.451743 61.173875 
L 49.354063 61.173875 
z
" style="fill: #ffffff"/>
   </g>
   <g id="matplotlib.axis_1">
    <g id="xtick_1">
     <g id="line2d_1">
      <path d="M 119.361576 674.617875 
L 119.361576 61.173875 
" clip-path="url(#p04049bbf60)" style="fill: none; stroke: #cccccc; stroke-opacity: 0.3; stroke-width: 0.8; stroke-linecap: round"/>
     </g>
     <g id="line2d_2"/>
     <g id="text_1">
      <text style="font-size: 10px; font-family: 'Arial', 'Liberation Sans', 'DejaVu Sans', 'Bitstream Vera Sans', sans-serif; text-anchor: middle; fill: #262626" x="119.361576" y="685.716312" transform="rotate(-0 119.361576 685.716312)">−20</text>
     </g>
    </g>
    <g id="xtick_2">
     <g id="line2d_3">
      <path d="M 259.376604 674.617875 
L 259.376604 61.173875 
" clip-path="url(#p04049bbf60)" style="fill: none; stroke: #cccccc; stroke-opacity: 0.3; stroke-width: 0.8; stroke-linecap: round"/>
     </g>
     <g id="line2d_4"/>
     <g id="text_2">
      <text style="font-size: 10px; font-family: 'Arial', 'Liberation Sans', 'DejaVu Sans', 'Bitstream Vera Sans', sans-serif; text-anchor: middle; fill: #262626" x="259.376604" y="685.716312" transform="rotate(-0 259.376604 685.716312)">−10</text>
     </g>
    </g>
    <g id="xtick_3">
     <g id="line2d_5">
      <path d="M 399.391632 674.617875 
L 399.391632 61.173875 
" clip-path="url(#p04049bbf60)" style="fill: none; stroke: #cccccc; stroke-opacity: 0.3; stroke-width: 0.8; stroke-linecap: round"/>
     </g>
     <g id="line2d_6"/>
     <g id="text_3">
      <text style="font-size: 10px; font-family: 'Arial', 'Liberation Sans', 'DejaVu Sans', 'Bitstream Vera Sans', sans-serif; text-anchor: middle; fill: #262626" x="399.391632" y="685.716312" transform="rotate(-0 399.391632 685.716312)">0</text>
     </g>
    </g>
    <g id="xtick_4">
     <g id="line2d_7">
      <path d="M 539.40666 674.617875 
L 539.40666 61.173875 
" clip-path="url(#p04049bbf60)" style="fill: none; stroke: #cccccc; stroke-opacity: 0.3; stroke-width: 0.8; stroke-linecap: round"/>
     </g>
     <g id="line2d_8"/>
     <g id="text_4">
      <text style="font-size: 10px; font-family: 'Arial', 'Liberation Sans', 'DejaVu Sans', 'Bitstream Vera Sans', sans-serif; text-anchor: middle; fill: #262626" x="539.40666" y="685.716312" transform="rotate(-0 539.40666 685.716312)">10</text>
     </g>
    </g>
    <g id="xtick_5">
     <g id="line2d_9">
      <path d="M 679.421688 674.617875 
L 679.421688 61.173875 
" clip-path="url(#p04049bbf60)" style="fill: none; stroke: #cccccc; stroke-opacity: 0.3; stroke-width: 0.8; stroke-linecap: round"/>
     </g>
     <g id="line2d_10"/>
     <g id="text_5">
      <text style="font-size: 10px; font-family: 'Arial', 'Liberation Sans', 'DejaVu Sans', 'Bitstream Vera Sans', sans-serif; text-anchor: middle; fill: #262626" x="679.421688" y="685.716312" transform="rotate(-0 679.421688 685.716312)">20</text>
     </g>
    </g>
    <g id="xtick_6">
     <g id="line2d_11">
      <path d="M 819.436715 674.617875 
L 819.436715 61.173875 
" clip-path="url(#p04049bbf60)" style="fill: none; stroke: #cccccc; stroke-opacity: 0.3; stroke-width: 0.8; stroke-linecap: round"/>
     </g>
     <g id="line2d_12"/>
     <g id="text_6">
      <text style="font-size: 10px; font-family: 'Arial', 'Liberation Sans', 'DejaVu Sans', 'Bitstream Vera Sans', sans-serif; text-anchor: middle; fill: #262626" x="819.436715" y="685.716312" transform="rotate(-0 819.436715 685.716312)">30</text>
     </g>
    </g>
    <g id="xtick_7">
     <g id="line2d_13">
      <path d="M 959.451743 674.617875 
L 959.451743 61.173875 
" clip-path="url(#p04049bbf60)" style="fill: none; stroke: #cccccc; stroke-opacity: 0.3; stroke-width: 0.8; stroke-linecap: round"/>
     </g>
     <g id="line2d_14"/>
     <g id="text_7">
      <text style="font-size: 10px; font-family: 'Arial', 'Liberation Sans', 'DejaVu Sans', 'Bitstream Vera Sans', sans-serif; text-anchor: middle; fill: #262626" x="959.451743" y="685.716312" transform="rotate(-0 959.451743 685.716312)">40</text>
     </g>
    </g>
    <g id="text_8">
     <text style="font-size: 14px; font-family: 'Arial', 'Liberation Sans', 'DejaVu Sans', 'Bitstream Vera Sans', sans-serif; text-anchor: middle; fill: #262626" x="504.402903" y="702.433812" transform="rotate(-0 504.402903 702.433812)">Longitude</text>
    </g>
   </g>
   <g id="matplotlib.axis_2">
    <g id="ytick_1">
     <g id="line2d_15">
      <path d="M 49.354063 674.617875 
L 959.451743 674.617875 
" clip-path="url(#p04049bbf60)" style="fill: none; stroke: #cccccc; stroke-opacity: 0.3; stroke-width: 0.8; stroke-linecap: round"/>
     </g>
     <g id="line2d_16"/>
     <g id="text_9">
      <text style="font-size: 10px; font-family: 'Arial', 'Liberation Sans', 'DejaVu Sans', 'Bitstream Vera Sans', sans-serif; text-anchor: end; fill: #262626" x="45.854063" y="678.417094" transform="rotate(-0 45.854063 678.417094)">−40</text>
     </g>
    </g>
    <g id="ytick_2">
     <g id="line2d_17">
      <path d="M 49.354063 597.937375 
L 959.451743 597.937375 
" clip-path="url(#p04049bbf60)" style="fill: none; stroke: #cccccc; stroke-opacity: 0.3; stroke-width: 0.8; stroke-linecap: round"/>
     </g>
     <g id="line2d_18"/>
     <g id="text_10">
      <text style="font-size: 10px; font-family: 'Arial', 'Liberation Sans', 'DejaVu Sans', 'Bitstream Vera Sans', sans-serif; text-anchor: end; fill: #262626" x="45.854063" y="601.736594" transform="rotate(-0 45.854063 601.736594)">−30</text>
     </g>
    </g>
    <g id="ytick_3">
     <g id="line2d_19">
      <path d="M 49.354063 521.256875 
L 959.451743 521.256875 
" clip-path="url(#p04049bbf60)" style="fill: none; stroke: #cccccc; stroke-opacity: 0.3; stroke-width: 0.8; stroke-linecap: round"/>
     </g>
     <g id="line2d_20"/>
     <g id="text_11">
      <text style="font-size: 10px; font-family: 'Arial', 'Liberation Sans', 'DejaVu Sans', 'Bitstream Vera Sans', sans-serif; text-anchor: end; fill: #262626" x="45.854063" y="525.056094" transform="rotate(-0 45.854063 525.056094)">−20</text>
     </g>
    </g>
    <g id="ytick_4">
     <g id="line2d_21">
      <path d="M 49.354063 444.576375 
L 959.451743 444.576375 
" clip-path="url(#p04049bbf60)" style="fill: none; stroke: #cccccc; stroke-opacity: 0.3; stroke-width: 0.8; stroke-linecap: round"/>
     </g>
     <g id="line2d_22"/>
     <g id="text_12">
      <text style="font-size: 10px; font-family: 'Arial', 'Liberation Sans', 'DejaVu Sans', 'Bitstream Vera Sans', sans-serif; text-anchor: end; fill: #262626" x="45.854063" y="448.375594" transform="rotate(-0 45.854063 448.375594)">−10</text>
     </g>
    </g>
    <g id="ytick_5">
     <g id="line2d_23">
      <path d="M 49.354063 367.895875 
L 959.451743 367.895875 
" clip-path="url(#p04049bbf60)" style="fill: none; stroke: #cccccc; stroke-opacity: 0.3; stroke-width: 0.8; stroke-linecap: round"/>
     </g>
     <g id="line2d_24"/>
     <g id="text_13">
      <text style="font-size: 10px; font-family: 'Arial', 'Liberation Sans', 'DejaVu Sans', 'Bitstream Vera Sans', sans-serif; text-anchor: end; fill: #262626" x="45.854063" y="371.695094" transform="rotate(-0 45.854063 371.695094)">0</text>
     </g>
    </g>
    <g id="ytick_6">
     <g id="line2d_25">
      <path d="M 49.354063 291.215375 
L 959.451743 291.215375 
" clip-path="url(#p04049bbf60)" style="fill: none; stroke: #cccccc; stroke-opacity: 0.3; stroke-width: 0.8; stroke-linecap: round"/>
     </g>
     <g id="line2d_26"/>
     <g id="text_14">
      <text style="font-size: 10px; font-family: 'Arial', 'Liberation Sans', 'DejaVu Sans', 'Bitstream Vera Sans', sans-serif; text-anchor: end; fill: #262626" x="45.854063" y="295.014594" transform="rotate(-0 45.854063 295.014594)">10</text>
     </g>
    </g>
    <g id="ytick_7">
     <g id="line2d_27">
      <path d="M 49.354063 214.534875 
L 959.451743 214.534875 
" clip-path="url(#p04049bbf60)" style="fill: none; stroke: #cccccc; stroke-opacity: 0.3; stroke-width: 0.8; stroke-linecap: round"/>
     </g>
     <g id="line2d_28"/>
     <g id="text_15">
      <text style="font-size: 10px; font-family: 'Arial', 'Liberation Sans', 'DejaVu Sans', 'Bitstream Vera Sans', sans-serif; text-anchor: end; fill: #262626" x="45.854063" y="218.334094" transform="rotate(-0 45.854063 218.334094)">20</text>
     </g>
    </g>
    <g id="ytick_8">
     <g id="line2d_29">
      <path d="M 49.354063 137.854375 
L 959.451743 137.854375 
" clip-path="url(#p04049bbf60)" style="fill: none; stroke: #cccccc; stroke-opacity: 0.3; stroke-width: 0.8; stroke-linecap: round"/>
     </g>
     <g id="line2d_30"/>
     <g id="text_16">
      <text style="font-size: 10px; font-family: 'Arial', 'Liberation Sans', 'DejaVu Sans', 'Bitstream Vera Sans', sans-serif; text-anchor: end; fill: #262626" x="45.854063" y="141.653594" transform="rotate(-0 45.854063 141.653594)">30</text>
     </g>
    </g>
    <g id="ytick_9">
     <g id="line2d_31">
      <path d="M 49.354063 61.173875 
L 959.451743 61.173875 
" clip-path="url(#p04049bbf60)" style="fill: none; stroke: #cccccc; stroke-opacity: 0.3; stroke-width: 0.8; stroke-linecap: round"/>
     </g>
     <g id="line2d_32"/>
     <g id="text_17">
      <text style="font-size: 10px; font-family: 'Arial', 'Liberation Sans', 'DejaVu Sans', 'Bitstream Vera Sans', sans-serif; text-anchor: end; fill: #262626" x="45.854063" y="64.973094" transform="rotate(-0 45.854063 64.973094)">40</text>
     </g>
    </g>
    <g id="text_18">
     <text style="font-size: 14px; font-family: 'Arial', 'Liberation Sans', 'DejaVu Sans', 'Bitstream Vera Sans', sans-serif; text-anchor: middle; fill: #262626" x="17.837813" y="367.895875" transform="rotate(-90 17.837813 367.895875)">Latitude</text>
    </g>
   </g>
   <g id="patch_3">
    <path d="M 119.361576 636.277625 
L 889.444229 636.277625 
L 889.444229 99.514125 
L 119.361576 99.514125 
z
" clip-path="url(#p04049bbf60)" style="fill: #d3d3d3; opacity: 0.3; stroke: #000000; stroke-width: 2; stroke-linejoin: miter"/>
   </g>
   <g id="patch_4">
    <path d="M 119.361576 444.576375 
L 889.444229 444.576375 
L 889.444229 291.215375 
L 119.361576 291.215375 
z
" clip-path="url(#p04049bbf60)" style="fill: #ffa500; opacity: 0.1"/>
   </g>
   <g id="patch_5">
    <path d="M 119.361576 636.277625 
L 889.444229 636.277625 
L 889.444229 444.576375 
L 119.361576 444.576375 
z
" clip-path="url(#p04049bbf60)" style="fill: #ff0000; opacity: 0.1"/>
   </g>
   <g id="line2d_33">
    <path d="M 792.095981 568.830224 
L 343.269408 326.795127 
" clip-path="url(#p04049bbf60)" style="fill: none; stroke-dasharray: 7.4,3.2; stroke-dashoffset: 0; stroke: #000000; stroke-opacity: 0.5; stroke-width: 2"/>
   </g>
   <g id="line2d_34">
    <path d="M 49.354063 367.895875 
L 959.451743 367.895875 
" clip-path="url(#p04049bbf60)" style="fill: none; stroke-dasharray: 7.4,3.2; stroke-dashoffset: 0; stroke: #ff0000; stroke-opacity: 0.7; stroke-width: 2"/>
   </g>
   <g id="patch_6">
    <path d="M 49.354063 674.617875 
L 49.354063 61.173875 
" style="fill: none; stroke: #cccccc; stroke-linejoin: miter; stroke-linecap: square"/>
   </g>
   <g id="patch_7">
    <path d="M 959.451743 674.617875 
L 959.451743 61.173875 
" style="fill: none; stroke: #cccccc; stroke-linejoin: miter; stroke-linecap: square"/>
   </g>
   <g id="patch_8">
    <path d="M 49.354062 674.617875 
L 959.451743 674.617875 
" style="fill: none; stroke: #cccccc; stroke-linejoin: miter; stroke-linecap: square"/>
   </g>
   <g id="patch_9">
    <path d="M 49.354062 61.173875 
L 959.451743 61.173875 
" style="fill: none; stroke: #cccccc; stroke-linejoin: miter; stroke-linecap: square"/>
   </g>
   <g id="text_19">
    <g id="patch_10">
     <path d="M 834.100489 552.015449 
L 976.609864 552.015449 
Q 980.209864 552.015449 980.209864 548.415449 
L 980.209864 509.739449 
Q 980.209864 506.139449 976.609864 506.139449 
L 834.100489 506.139449 
Q 830.500489 506.139449 830.500489 509.739449 
L 830.500489 548.415449 
Q 830.500489 552.015449 834.100489 552.015449 
z
" style="fill: #ff6b35; opacity: 0.7; stroke: #000000; stroke-linejoin: miter"/>
    </g>
    <text style="font-weight: 700; font-size: 12px; font-family: 'Arial', 'Liberation Sans', 'DejaVu Sans', 'Bitstream Vera Sans', sans-serif; fill: #262626" transform="translate(834.100489 518.857574)">Johannesburg</text>
    <text style="font-weight: 700; font-size: 12px; font-family: 'Arial', 'Liberation Sans', 'DejaVu Sans', 'Bitstream Vera Sans', sans-serif; fill: #262626" transform="translate(834.100489 532.388699)">11,800 participants</text>
    <text style="font-weight: 700; font-size: 12px; font-family: 'Arial', 'Liberation Sans', 'DejaVu Sans', 'Bitstream Vera Sans', sans-serif; fill: #262626" transform="translate(834.100489 545.826074)">Subtropical Highland</text>
   </g>
   <g id="text_20">
    <g id="patch_11">
     <path d="M 385.273917 309.886602 
L 509.196417 309.886602 
Q 512.796417 309.886602 512.796417 306.286602 
L 512.796417 267.610602 
Q 512.796417 264.010602 509.196417 264.010602 
L 385.273917 264.010602 
Q 381.673917 264.010602 381.673917 267.610602 
L 381.673917 306.286602 
Q 381.673917 309.886602 385.273917 309.886602 
z
" style="fill: #4ecdc4; opacity: 0.7; stroke: #000000; stroke-linejoin: miter"/>
    </g>
    <text style="font-weight: 700; font-size: 12px; font-family: 'Arial', 'Liberation Sans', 'DejaVu Sans', 'Bitstream Vera Sans', sans-serif; fill: #262626" transform="translate(385.273917 276.822477)">Abidjan</text>
    <text style="font-weight: 700; font-size: 12px; font-family: 'Arial', 'Liberation Sans', 'DejaVu Sans', 'Bitstream Vera Sans', sans-serif; fill: #262626" transform="translate(385.273917 290.353602)">9,162 participants</text>
    <text style="font-weight: 700; font-size: 12px; font-family: 'Arial', 'Liberation Sans', 'DejaVu Sans', 'Bitstream Vera Sans', sans-serif; fill: #262626" transform="translate(385.273917 303.790977)">Tropical Savanna</text>
   </g>
   <g id="text_21">
    <text style="font-weight: 700; font-size: 14px; font-family: 'Arial', 'Liberation Sans', 'DejaVu Sans', 'Bitstream Vera Sans', sans-serif; text-anchor: start; fill: #262626; opacity: 0.7" x="469.399146" y="406.236125" transform="rotate(-0 469.399146 406.236125)">Tropical Zone</text>
   </g>
   <g id="text_22">
    <text style="font-weight: 700; font-size: 14px; font-family: 'Arial', 'Liberation Sans', 'DejaVu Sans', 'Bitstream Vera Sans', sans-serif; text-anchor: start; fill: #262626; opacity: 0.7" x="609.414174" y="559.597125" transform="rotate(-0 609.414174 559.597125)">Subtropical Zone</text>
   </g>
   <g id="text_23">
    <text style="font-weight: 700; font-size: 12px; font-family: 'Arial', 'Liberation Sans', 'DejaVu Sans', 'Bitstream Vera Sans', sans-serif; text-anchor: start; fill: #ff0000" x="147.364582" y="360.227825" transform="rotate(-0 147.364582 360.227825)">Equator</text>
   </g>
   <g id="text_24">
    <g id="patch_12">
     <path d="M 543.395038 453.400332 
L 591.970351 453.400332 
Q 595.270351 453.400332 595.270351 450.100332 
L 595.270351 427.136801 
Q 595.270351 423.836801 591.970351 423.836801 
L 543.395038 423.836801 
Q 540.095038 423.836801 540.095038 427.136801 
L 540.095038 450.100332 
Q 540.095038 453.400332 543.395038 453.400332 
z
" style="fill: #ffffff; opacity: 0.8; stroke: #000000; stroke-linejoin: miter"/>
    </g>
    <text style="font-size: 11px; font-family: 'Arial', 'Liberation Sans', 'DejaVu Sans', 'Bitstream Vera Sans', sans-serif; fill: #262626" transform="translate(543.395038 435.495082)">2400 km</text>
    <text style="font-size: 11px; font-family: 'Arial', 'Liberation Sans', 'DejaVu Sans', 'Bitstream Vera Sans', sans-serif; fill: #262626" transform="translate(553.032929 447.812676)">apart</text>
   </g>
   <g id="text_25">
    <text style="font-weight: 700; font-size: 18px; font-family: 'Arial', 'Liberation Sans', 'DejaVu Sans', 'Bitstream Vera Sans', sans-serif; fill: #262626" transform="translate(208.73884 20.877187)">Heat-Health Research Locations: Johannesburg vs Abidjan</text>
    <text style="font-weight: 700; font-size: 18px; font-family: 'Arial', 'Liberation Sans', 'DejaVu Sans', 'Bitstream Vera Sans', sans-serif; fill: #262626" transform="translate(304.415872 41.173875)">Climate Zone Comparison Across Africa</text>
   </g>
   <g id="patch_13">
    <path d="M 792.095981 689.474211 
C 850.517654 689.474211 906.554392 676.762399 947.864753 654.138405 
C 989.175114 631.514411 1012.386291 600.825383 1012.386291 568.830224 
C 1012.386291 536.835065 989.175114 506.146037 947.864753 483.522043 
C 906.554392 460.898049 850.517654 448.186237 792.095981 448.186237 
C 733.674308 448.186237 677.63757 460.898049 636.327209 483.522043 
C 595.016847 506.146037 571.80567 536.835065 571.80567 568.830224 
C 571.80567 600.825383 595.016847 631.514411 636.327209 654.138405 
C 677.63757 676.762399 733.674308 689.474211 792.095981 689.474211 
z
" clip-path="url(#p04049bbf60)" style="fill: #ff6b35; opacity: 0.8; stroke: #ff6b35; stroke-linejoin: miter"/>
   </g>
   <g id="patch_14">
    <path d="M 343.269408 420.468026 
C 388.630372 420.468026 432.139575 410.598058 464.21462 393.031869 
C 496.289664 375.46568 514.311766 351.63747 514.311766 326.795127 
C 514.311766 301.952784 496.289664 278.124574 464.21462 260.558385 
C 432.139575 242.992196 388.630372 233.122228 343.269408 233.122228 
C 297.908445 233.122228 254.399242 242.992196 222.324197 260.558385 
C 190.249152 278.124574 172.22705 301.952784 172.22705 326.795127 
C 172.22705 351.63747 190.249152 375.46568 222.324197 393.031869 
C 254.399242 410.598058 297.908445 420.468026 343.269408 420.468026 
z
" clip-path="url(#p04049bbf60)" style="fill: #4ecdc4; opacity: 0.8; stroke: #4ecdc4; stroke-linejoin: miter"/>
   </g>
   <g id="legend_1">
    <g id="line2d_35">
     <path d="M 694.529243 76.892 
L 706.529243 76.892 
L 718.529243 76.892 
" style="fill: none; stroke: #ffffff; stroke-width: 1.5; stroke-linecap: round"/>
     <defs>
      <path id="me4854c91ef" d="M 0 7.5 
C 1.989023 7.5 3.896849 6.709753 5.303301 5.303301 
C 6.709753 3.896849 7.5 1.989023 7.5 0 
C 7.5 -1.989023 6.709753 -3.896849 5.303301 -5.303301 
C 3.896849 -6.709753 1.989023 -7.5 0 -7.5 
C -1.989023 -7.5 -3.896849 -6.709753 -5.303301 -5.303301 
C -6.709753 -3.896849 -7.5 -1.989023 -7.5 0 
C -7.5 1.989023 -6.709753 3.896849 -5.303301 5.303301 
C -3.896849 6.709753 -1.989023 7.5 0 7.5 
z
" style="stroke: #ffffff"/>
     </defs>
     <g>
      <use xlink:href="#me4854c91ef" x="706.529243" y="76.892" style="fill: #ff6b35; stroke: #ffffff"/>
     </g>
    </g>
    <g id="text_26">
     <text style="font-size: 12px; font-family: 'Arial', 'Liberation Sans', 'DejaVu Sans', 'Bitstream Vera Sans', sans-serif; text-anchor: start; fill: #262626" x="728.129243" y="81.092" transform="rotate(-0 728.129243 81.092)">Johannesburg (Subtropical Highland)</text>
    </g>
    <g id="line2d_36">
     <path d="M 694.529243 94.50575 
L 706.529243 94.50575 
L 718.529243 94.50575 
" style="fill: none; stroke: #ffffff; stroke-width: 1.5; stroke-linecap: round"/>
     <defs>
      <path id="m36d5769416" d="M 0 7.5 
C 1.989023 7.5 3.896849 6.709753 5.303301 5.303301 
C 6.709753 3.896849 7.5 1.989023 7.5 0 
C 7.5 -1.989023 6.709753 -3.896849 5.303301 -5.303301 
C 3.896849 -6.709753 1.989023 -7.5 0 -7.5 
C -1.989023 -7.5 -3.896849 -6.709753 -5.303301 -5.303301 
C -6.709753 -3.896849 -7.5 -1.989023 -7.5 0 
C -7.5 1.989023 -6.709753 3.896849 -5.303301 5.303301 
C -3.896849 6.709753 -1.989023 7.5 0 7.5 
z
" style="stroke: #ffffff"/>
     </defs>
     <g>
      <use xlink:href="#m36d5769416" x="706.529243" y="94.50575" style="fill: #4ecdc4; stroke: #ffffff"/>
     </g>
    </g>
    <g id="text_27">
     <text style="font-size: 12px; font-family: 'Arial', 'Liberation Sans', 'DejaVu Sans', 'Bitstream Vera Sans', sans-serif; text-anchor: start; fill: #262626" x="728.129243" y="98.70575" transform="rotate(-0 728.129243 98.70575)">Abidjan (Tropical Savanna)</text>
    </g>
   </g>
  </g>
 </g>
 <defs>
  <clipPath id="p04049bbf60">
   <rect x="49.354063" y="61.173875" width="910.097681" height="613.444"/>
  </clipPath>
 </defs>
</svg>
