<?xml version="1.0" encoding="utf-8" standalone="no"?>
<!DOCTYPE svg PUBLIC "-//W3C//DTD SVG 1.1//EN"
  "http://www.w3.org/Graphics/SVG/1.1/DTD/svg11.dtd">
<svg xmlns:xlink="http://www.w3.org/1999/xlink" width="824.27375pt" height="1419.471091pt" viewBox="0 0 824.27375 1419.471091" xmlns="http://www.w3.org/2000/svg" version="1.1">
 <metadata>
  <rdf:RDF xmlns:dc="http://purl.org/dc/elements/1.1/" xmlns:cc="http://creativecommons.org/ns#" xmlns:rdf="http://www.w3.org/1999/02/22-rdf-syntax-ns#">
   <cc:Work>
    <dc:type rdf:resource="http://purl.org/dc/dcmitype/StillImage"/>
    <dc:date>2025-08-22T17:01:55.315782</dc:date>
    <dc:format>image/svg+xml</dc:format>
    <dc:creator>
     <cc:Agent>
      <dc:title>Matplotlib v3.10.5, https://matplotlib.org/</dc:title>
     </cc:Agent>
    </dc:creator>
   </cc:Work>
  </rdf:RDF>
 </metadata>
 <defs>
  <style type="text/css">*{stroke-linejoin: round; stroke-linecap: butt}</style>
 </defs>
 <g id="figure_1">
  <g id="patch_1">
   <path d="M 0 1419.471091 
L 824.27375 1419.471091 
L 824.27375 0 
L 0 0 
z
" style="fill: #ffffff"/>
  </g>
  <g id="axes_1">
   <g id="patch_2">
    <path d="M 47.336875 500.919 
L 716.936875 500.919 
L 716.936875 57.399 
L 47.336875 57.399 
z
" style="fill: #ffffff"/>
   </g>
   <g id="matplotlib.axis_1">
    <g id="xtick_1">
     <g id="line2d_1">
      <path d="M 77.773239 500.919 
L 77.773239 57.399 
" clip-path="url(#p336f924e17)" style="fill: none; stroke: #cccccc; stroke-opacity: 0.3; stroke-width: 0.8; stroke-linecap: round"/>
     </g>
     <g id="line2d_2"/>
     <g id="text_1">
      <text style="font-size: 10px; font-family: 'Arial', 'Liberation Sans', 'DejaVu Sans', 'Bitstream Vera Sans', sans-serif; text-anchor: middle; fill: #262626" x="77.773239" y="512.017437" transform="rotate(-0 77.773239 512.017437)">0</text>
     </g>
    </g>
    <g id="xtick_2">
     <g id="line2d_3">
      <path d="M 153.864148 500.919 
L 153.864148 57.399 
" clip-path="url(#p336f924e17)" style="fill: none; stroke: #cccccc; stroke-opacity: 0.3; stroke-width: 0.8; stroke-linecap: round"/>
     </g>
     <g id="line2d_4"/>
     <g id="text_2">
      <text style="font-size: 10px; font-family: 'Arial', 'Liberation Sans', 'DejaVu Sans', 'Bitstream Vera Sans', sans-serif; text-anchor: middle; fill: #262626" x="153.864148" y="512.017437" transform="rotate(-0 153.864148 512.017437)">250</text>
     </g>
    </g>
    <g id="xtick_3">
     <g id="line2d_5">
      <path d="M 229.955057 500.919 
L 229.955057 57.399 
" clip-path="url(#p336f924e17)" style="fill: none; stroke: #cccccc; stroke-opacity: 0.3; stroke-width: 0.8; stroke-linecap: round"/>
     </g>
     <g id="line2d_6"/>
     <g id="text_3">
      <text style="font-size: 10px; font-family: 'Arial', 'Liberation Sans', 'DejaVu Sans', 'Bitstream Vera Sans', sans-serif; text-anchor: middle; fill: #262626" x="229.955057" y="512.017437" transform="rotate(-0 229.955057 512.017437)">500</text>
     </g>
    </g>
    <g id="xtick_4">
     <g id="line2d_7">
      <path d="M 306.045966 500.919 
L 306.045966 57.399 
" clip-path="url(#p336f924e17)" style="fill: none; stroke: #cccccc; stroke-opacity: 0.3; stroke-width: 0.8; stroke-linecap: round"/>
     </g>
     <g id="line2d_8"/>
     <g id="text_4">
      <text style="font-size: 10px; font-family: 'Arial', 'Liberation Sans', 'DejaVu Sans', 'Bitstream Vera Sans', sans-serif; text-anchor: middle; fill: #262626" x="306.045966" y="512.017437" transform="rotate(-0 306.045966 512.017437)">750</text>
     </g>
    </g>
    <g id="xtick_5">
     <g id="line2d_9">
      <path d="M 382.136875 500.919 
L 382.136875 57.399 
" clip-path="url(#p336f924e17)" style="fill: none; stroke: #cccccc; stroke-opacity: 0.3; stroke-width: 0.8; stroke-linecap: round"/>
     </g>
     <g id="line2d_10"/>
     <g id="text_5">
      <text style="font-size: 10px; font-family: 'Arial', 'Liberation Sans', 'DejaVu Sans', 'Bitstream Vera Sans', sans-serif; text-anchor: middle; fill: #262626" x="382.136875" y="512.017437" transform="rotate(-0 382.136875 512.017437)">1000</text>
     </g>
    </g>
    <g id="xtick_6">
     <g id="line2d_11">
      <path d="M 458.227784 500.919 
L 458.227784 57.399 
" clip-path="url(#p336f924e17)" style="fill: none; stroke: #cccccc; stroke-opacity: 0.3; stroke-width: 0.8; stroke-linecap: round"/>
     </g>
     <g id="line2d_12"/>
     <g id="text_6">
      <text style="font-size: 10px; font-family: 'Arial', 'Liberation Sans', 'DejaVu Sans', 'Bitstream Vera Sans', sans-serif; text-anchor: middle; fill: #262626" x="458.227784" y="512.017437" transform="rotate(-0 458.227784 512.017437)">1250</text>
     </g>
    </g>
    <g id="xtick_7">
     <g id="line2d_13">
      <path d="M 534.318693 500.919 
L 534.318693 57.399 
" clip-path="url(#p336f924e17)" style="fill: none; stroke: #cccccc; stroke-opacity: 0.3; stroke-width: 0.8; stroke-linecap: round"/>
     </g>
     <g id="line2d_14"/>
     <g id="text_7">
      <text style="font-size: 10px; font-family: 'Arial', 'Liberation Sans', 'DejaVu Sans', 'Bitstream Vera Sans', sans-serif; text-anchor: middle; fill: #262626" x="534.318693" y="512.017437" transform="rotate(-0 534.318693 512.017437)">1500</text>
     </g>
    </g>
    <g id="xtick_8">
     <g id="line2d_15">
      <path d="M 610.409602 500.919 
L 610.409602 57.399 
" clip-path="url(#p336f924e17)" style="fill: none; stroke: #cccccc; stroke-opacity: 0.3; stroke-width: 0.8; stroke-linecap: round"/>
     </g>
     <g id="line2d_16"/>
     <g id="text_8">
      <text style="font-size: 10px; font-family: 'Arial', 'Liberation Sans', 'DejaVu Sans', 'Bitstream Vera Sans', sans-serif; text-anchor: middle; fill: #262626" x="610.409602" y="512.017437" transform="rotate(-0 610.409602 512.017437)">1750</text>
     </g>
    </g>
    <g id="xtick_9">
     <g id="line2d_17">
      <path d="M 686.500511 500.919 
L 686.500511 57.399 
" clip-path="url(#p336f924e17)" style="fill: none; stroke: #cccccc; stroke-opacity: 0.3; stroke-width: 0.8; stroke-linecap: round"/>
     </g>
     <g id="line2d_18"/>
     <g id="text_9">
      <text style="font-size: 10px; font-family: 'Arial', 'Liberation Sans', 'DejaVu Sans', 'Bitstream Vera Sans', sans-serif; text-anchor: middle; fill: #262626" x="686.500511" y="512.017437" transform="rotate(-0 686.500511 512.017437)">2000</text>
     </g>
    </g>
    <g id="text_10">
     <text style="font-size: 14px; font-family: 'Arial', 'Liberation Sans', 'DejaVu Sans', 'Bitstream Vera Sans', sans-serif; text-anchor: middle; fill: #262626" x="382.136875" y="528.734937" transform="rotate(-0 382.136875 528.734937)">Altitude (meters above sea level)</text>
    </g>
   </g>
   <g id="matplotlib.axis_2">
    <g id="ytick_1">
     <g id="line2d_19">
      <path d="M 47.336875 458.16549 
L 716.936875 458.16549 
" clip-path="url(#p336f924e17)" style="fill: none; stroke: #cccccc; stroke-opacity: 0.3; stroke-width: 0.8; stroke-linecap: round"/>
     </g>
     <g id="line2d_20"/>
     <g id="text_11">
      <text style="font-size: 10px; font-family: 'Arial', 'Liberation Sans', 'DejaVu Sans', 'Bitstream Vera Sans', sans-serif; text-anchor: end; fill: #0000ff" x="43.836875" y="461.964709" transform="rotate(-0 43.836875 461.964709)">80</text>
     </g>
    </g>
    <g id="ytick_2">
     <g id="line2d_21">
      <path d="M 47.336875 363.013868 
L 716.936875 363.013868 
" clip-path="url(#p336f924e17)" style="fill: none; stroke: #cccccc; stroke-opacity: 0.3; stroke-width: 0.8; stroke-linecap: round"/>
     </g>
     <g id="line2d_22"/>
     <g id="text_12">
      <text style="font-size: 10px; font-family: 'Arial', 'Liberation Sans', 'DejaVu Sans', 'Bitstream Vera Sans', sans-serif; text-anchor: end; fill: #0000ff" x="43.836875" y="366.813086" transform="rotate(-0 43.836875 366.813086)">85</text>
     </g>
    </g>
    <g id="ytick_3">
     <g id="line2d_23">
      <path d="M 47.336875 267.862245 
L 716.936875 267.862245 
" clip-path="url(#p336f924e17)" style="fill: none; stroke: #cccccc; stroke-opacity: 0.3; stroke-width: 0.8; stroke-linecap: round"/>
     </g>
     <g id="line2d_24"/>
     <g id="text_13">
      <text style="font-size: 10px; font-family: 'Arial', 'Liberation Sans', 'DejaVu Sans', 'Bitstream Vera Sans', sans-serif; text-anchor: end; fill: #0000ff" x="43.836875" y="271.661464" transform="rotate(-0 43.836875 271.661464)">90</text>
     </g>
    </g>
    <g id="ytick_4">
     <g id="line2d_25">
      <path d="M 47.336875 172.710623 
L 716.936875 172.710623 
" clip-path="url(#p336f924e17)" style="fill: none; stroke: #cccccc; stroke-opacity: 0.3; stroke-width: 0.8; stroke-linecap: round"/>
     </g>
     <g id="line2d_26"/>
     <g id="text_14">
      <text style="font-size: 10px; font-family: 'Arial', 'Liberation Sans', 'DejaVu Sans', 'Bitstream Vera Sans', sans-serif; text-anchor: end; fill: #0000ff" x="43.836875" y="176.509841" transform="rotate(-0 43.836875 176.509841)">95</text>
     </g>
    </g>
    <g id="ytick_5">
     <g id="line2d_27">
      <path d="M 47.336875 77.559 
L 716.936875 77.559 
" clip-path="url(#p336f924e17)" style="fill: none; stroke: #cccccc; stroke-opacity: 0.3; stroke-width: 0.8; stroke-linecap: round"/>
     </g>
     <g id="line2d_28"/>
     <g id="text_15">
      <text style="font-size: 10px; font-family: 'Arial', 'Liberation Sans', 'DejaVu Sans', 'Bitstream Vera Sans', sans-serif; text-anchor: end; fill: #0000ff" x="43.836875" y="81.358219" transform="rotate(-0 43.836875 81.358219)">100</text>
     </g>
    </g>
    <g id="text_16">
     <text style="font-size: 14px; font-family: 'Arial', 'Liberation Sans', 'DejaVu Sans', 'Bitstream Vera Sans', sans-serif; text-anchor: middle; fill: #0000ff" x="17.837813" y="279.159" transform="rotate(-90 17.837813 279.159)">Oxygen Availability (%)</text>
    </g>
   </g>
   <g id="line2d_29">
    <path d="M 77.773239 77.559 
L 83.921999 82.130298 
L 90.070759 86.690616 
L 96.21952 91.239979 
L 102.36828 95.778415 
L 108.51704 100.305948 
L 114.665801 104.822606 
L 120.814561 109.328414 
L 126.963321 113.823398 
L 133.112082 118.307586 
L 139.260842 122.781001 
L 145.409602 127.243672 
L 151.558363 131.695622 
L 157.707123 136.136878 
L 163.855883 140.567466 
L 170.004644 144.987411 
L 176.153404 149.396738 
L 182.302164 153.795475 
L 188.450925 158.183644 
L 194.599685 162.561273 
L 200.748445 166.928387 
L 206.897206 171.28501 
L 213.045966 175.631168 
L 219.194726 179.966886 
L 225.343487 184.292189 
L 231.492247 188.607102 
L 237.641007 192.911651 
L 243.789768 197.205859 
L 249.938528 201.489752 
L 256.087288 205.763355 
L 262.236049 210.026692 
L 268.384809 214.279788 
L 274.533569 218.522668 
L 280.68233 222.755356 
L 286.83109 226.977876 
L 292.97985 231.190254 
L 299.128611 235.392512 
L 305.277371 239.584677 
L 311.426131 243.766771 
L 317.574892 247.93882 
L 323.723652 252.100847 
L 329.872412 256.252876 
L 336.021173 260.394932 
L 342.169933 264.527038 
L 348.318693 268.649218 
L 354.467454 272.761496 
L 360.616214 276.863896 
L 366.764974 280.956442 
L 372.913735 285.039156 
L 379.062495 289.112064 
L 385.211255 293.175188 
L 391.360015 297.228552 
L 397.508776 301.27218 
L 403.657536 305.306094 
L 409.806296 309.330318 
L 415.955057 313.344876 
L 422.103817 317.34979 
L 428.252577 321.345084 
L 434.401338 325.330781 
L 440.550098 329.306903 
L 446.698858 333.273475 
L 452.847619 337.230518 
L 458.996379 341.178057 
L 465.145139 345.116112 
L 471.2939 349.044708 
L 477.44266 352.963868 
L 483.59142 356.873612 
L 489.740181 360.773966 
L 495.888941 364.66495 
L 502.037701 368.546587 
L 508.186462 372.418901 
L 514.335222 376.281913 
L 520.483982 380.135645 
L 526.632743 383.98012 
L 532.781503 387.81536 
L 538.930263 391.641388 
L 545.079024 395.458225 
L 551.227784 399.265894 
L 557.376544 403.064416 
L 563.525305 406.853814 
L 569.674065 410.634109 
L 575.822825 414.405324 
L 581.971586 418.167479 
L 588.120346 421.920598 
L 594.269106 425.664701 
L 600.417867 429.39981 
L 606.566627 433.125947 
L 612.715387 436.843134 
L 618.864148 440.551391 
L 625.012908 444.250741 
L 631.161668 447.941204 
L 637.310429 451.622803 
L 643.459189 455.295558 
L 649.607949 458.959491 
L 655.75671 462.614622 
L 661.90547 466.260974 
L 668.05423 469.898566 
L 674.202991 473.527421 
L 680.351751 477.147558 
L 686.500511 480.759 
" clip-path="url(#p336f924e17)" style="fill: none; stroke: #0000ff; stroke-width: 3; stroke-linecap: round"/>
   </g>
   <g id="line2d_30">
    <path d="M 100.904875 500.919 
L 100.904875 57.399 
" clip-path="url(#p336f924e17)" style="fill: none; stroke-dasharray: 11.1,4.8; stroke-dashoffset: 0; stroke: #4ecdc4; stroke-opacity: 0.8; stroke-width: 3"/>
   </g>
   <g id="line2d_31">
    <path d="M 611.322693 500.919 
L 611.322693 57.399 
" clip-path="url(#p336f924e17)" style="fill: none; stroke-dasharray: 11.1,4.8; stroke-dashoffset: 0; stroke: #ff6b35; stroke-opacity: 0.8; stroke-width: 3"/>
   </g>
   <g id="patch_3">
    <path d="M 47.336875 500.919 
L 47.336875 57.399 
" style="fill: none; stroke: #cccccc; stroke-linejoin: miter; stroke-linecap: square"/>
   </g>
   <g id="patch_4">
    <path d="M 716.936875 500.919 
L 716.936875 57.399 
" style="fill: none; stroke: #cccccc; stroke-linejoin: miter; stroke-linecap: square"/>
   </g>
   <g id="patch_5">
    <path d="M 47.336875 500.919 
L 716.936875 500.919 
" style="fill: none; stroke: #cccccc; stroke-linejoin: miter; stroke-linecap: square"/>
   </g>
   <g id="patch_6">
    <path d="M 47.336875 57.399 
L 716.936875 57.399 
" style="fill: none; stroke: #cccccc; stroke-linejoin: miter; stroke-linecap: square"/>
   </g>
   <g id="text_17">
    <g id="patch_7">
     <path d="M 64.727688 1035.170851 
L 137.082063 1035.170851 
Q 140.682063 1035.170851 140.682063 1031.570851 
L 140.682063 1006.332226 
Q 140.682063 1002.732226 137.082063 1002.732226 
L 64.727688 1002.732226 
Q 61.127688 1002.732226 61.127688 1006.332226 
L 61.127688 1031.570851 
Q 61.127688 1035.170851 64.727688 1035.170851 
z
" style="fill: #4ecdc4; opacity: 0.7; stroke: #000000; stroke-linejoin: miter"/>
    </g>
    <text style="font-weight: 700; font-size: 12px; font-family: 'Arial', 'Liberation Sans', 'DejaVu Sans', 'Bitstream Vera Sans', sans-serif; fill: #262626" transform="translate(75.238 1015.544101)">Abidjan</text>
    <text style="font-weight: 700; font-size: 12px; font-family: 'Arial', 'Liberation Sans', 'DejaVu Sans', 'Bitstream Vera Sans', sans-serif; fill: #262626" transform="translate(64.727688 1029.075226)">(Sea level)</text>
   </g>
   <g id="text_18">
    <g id="patch_8">
     <path d="M 561.571443 1415.871091 
L 661.073943 1415.871091 
Q 664.673943 1415.871091 664.673943 1412.271091 
L 664.673943 1387.032466 
Q 664.673943 1383.432466 661.073943 1383.432466 
L 561.571443 1383.432466 
Q 557.971443 1383.432466 557.971443 1387.032466 
L 557.971443 1412.271091 
Q 557.971443 1415.871091 561.571443 1415.871091 
z
" style="fill: #ff6b35; opacity: 0.7; stroke: #000000; stroke-linejoin: miter"/>
    </g>
    <text style="font-weight: 700; font-size: 12px; font-family: 'Arial', 'Liberation Sans', 'DejaVu Sans', 'Bitstream Vera Sans', sans-serif; fill: #262626" transform="translate(564.645506 1396.150591)">Johannesburg</text>
    <text style="font-weight: 700; font-size: 12px; font-family: 'Arial', 'Liberation Sans', 'DejaVu Sans', 'Bitstream Vera Sans', sans-serif; fill: #262626" transform="translate(561.571443 1409.681716)">(High altitude)</text>
   </g>
   <g id="text_19">
    <text style="font-weight: 700; font-size: 16px; font-family: 'Arial', 'Liberation Sans', 'DejaVu Sans', 'Bitstream Vera Sans', sans-serif; fill: #262626" transform="translate(80.489375 19.3575)">Altitude-Health Gradient: Physiological Heat Response Differences</text>
    <text style="font-weight: 700; font-size: 16px; font-family: 'Arial', 'Liberation Sans', 'DejaVu Sans', 'Bitstream Vera Sans', sans-serif; fill: #262626" transform="translate(252.471875 37.399)">Between Research Locations</text>
   </g>
   <g id="legend_1">
    <g id="line2d_32">
     <path d="M 563.22125 249.062125 
L 573.22125 249.062125 
L 583.22125 249.062125 
" style="fill: none; stroke: #0000ff; stroke-width: 3; stroke-linecap: round"/>
    </g>
    <g id="text_20">
     <text style="font-size: 10px; font-family: 'Arial', 'Liberation Sans', 'DejaVu Sans', 'Bitstream Vera Sans', sans-serif; text-anchor: start; fill: #262626" x="591.22125" y="252.562125" transform="rotate(-0 591.22125 252.562125)">Oxygen Availability (%)</text>
    </g>
    <g id="line2d_33">
     <path d="M 563.22125 263.74025 
L 573.22125 263.74025 
L 583.22125 263.74025 
" style="fill: none; stroke: #008000; stroke-width: 3; stroke-linecap: round"/>
    </g>
    <g id="text_21">
     <text style="font-size: 10px; font-family: 'Arial', 'Liberation Sans', 'DejaVu Sans', 'Bitstream Vera Sans', sans-serif; text-anchor: start; fill: #262626" x="591.22125" y="267.24025" transform="rotate(-0 591.22125 267.24025)">Heat Tolerance Index</text>
    </g>
    <g id="line2d_34">
     <path d="M 563.22125 278.418375 
L 573.22125 278.418375 
L 583.22125 278.418375 
" style="fill: none; stroke: #ff0000; stroke-width: 3; stroke-linecap: round"/>
    </g>
    <g id="text_22">
     <text style="font-size: 10px; font-family: 'Arial', 'Liberation Sans', 'DejaVu Sans', 'Bitstream Vera Sans', sans-serif; text-anchor: start; fill: #262626" x="591.22125" y="281.918375" transform="rotate(-0 591.22125 281.918375)">CV Stress Index</text>
    </g>
    <g id="line2d_35">
     <path d="M 563.22125 293.0965 
L 573.22125 293.0965 
L 583.22125 293.0965 
" style="fill: none; stroke-dasharray: 11.1,4.8; stroke-dashoffset: 0; stroke: #4ecdc4; stroke-width: 3"/>
    </g>
    <g id="text_23">
     <text style="font-size: 10px; font-family: 'Arial', 'Liberation Sans', 'DejaVu Sans', 'Bitstream Vera Sans', sans-serif; text-anchor: start; fill: #262626" x="591.22125" y="296.5965" transform="rotate(-0 591.22125 296.5965)">Abidjan</text>
    </g>
    <g id="line2d_36">
     <path d="M 563.22125 307.774625 
L 573.22125 307.774625 
L 583.22125 307.774625 
" style="fill: none; stroke-dasharray: 11.1,4.8; stroke-dashoffset: 0; stroke: #ff6b35; stroke-width: 3"/>
    </g>
    <g id="text_24">
     <text style="font-size: 10px; font-family: 'Arial', 'Liberation Sans', 'DejaVu Sans', 'Bitstream Vera Sans', sans-serif; text-anchor: start; fill: #262626" x="591.22125" y="311.274625" transform="rotate(-0 591.22125 311.274625)">Johannesburg</text>
    </g>
   </g>
  </g>
  <g id="axes_2">
   <g id="matplotlib.axis_3">
    <g id="ytick_6">
     <g id="line2d_37">
      <path d="M 47.336875 449.671806 
L 716.936875 449.671806 
" clip-path="url(#p336f924e17)" style="fill: none; stroke: #cccccc; stroke-width: 0.8; stroke-linecap: round"/>
     </g>
     <g id="line2d_38"/>
     <g id="text_25">
      <text style="font-size: 10px; font-family: 'Arial', 'Liberation Sans', 'DejaVu Sans', 'Bitstream Vera Sans', sans-serif; text-anchor: start; fill: #008000" x="720.436875" y="453.471025" transform="rotate(-0 720.436875 453.471025)">86</text>
     </g>
    </g>
    <g id="ytick_7">
     <g id="line2d_39">
      <path d="M 47.336875 387.497417 
L 716.936875 387.497417 
" clip-path="url(#p336f924e17)" style="fill: none; stroke: #cccccc; stroke-width: 0.8; stroke-linecap: round"/>
     </g>
     <g id="line2d_40"/>
     <g id="text_26">
      <text style="font-size: 10px; font-family: 'Arial', 'Liberation Sans', 'DejaVu Sans', 'Bitstream Vera Sans', sans-serif; text-anchor: start; fill: #008000" x="720.436875" y="391.296636" transform="rotate(-0 720.436875 391.296636)">88</text>
     </g>
    </g>
    <g id="ytick_8">
     <g id="line2d_41">
      <path d="M 47.336875 325.323029 
L 716.936875 325.323029 
" clip-path="url(#p336f924e17)" style="fill: none; stroke: #cccccc; stroke-width: 0.8; stroke-linecap: round"/>
     </g>
     <g id="line2d_42"/>
     <g id="text_27">
      <text style="font-size: 10px; font-family: 'Arial', 'Liberation Sans', 'DejaVu Sans', 'Bitstream Vera Sans', sans-serif; text-anchor: start; fill: #008000" x="720.436875" y="329.122248" transform="rotate(-0 720.436875 329.122248)">90</text>
     </g>
    </g>
    <g id="ytick_9">
     <g id="line2d_43">
      <path d="M 47.336875 263.14864 
L 716.936875 263.14864 
" clip-path="url(#p336f924e17)" style="fill: none; stroke: #cccccc; stroke-width: 0.8; stroke-linecap: round"/>
     </g>
     <g id="line2d_44"/>
     <g id="text_28">
      <text style="font-size: 10px; font-family: 'Arial', 'Liberation Sans', 'DejaVu Sans', 'Bitstream Vera Sans', sans-serif; text-anchor: start; fill: #008000" x="720.436875" y="266.947859" transform="rotate(-0 720.436875 266.947859)">92</text>
     </g>
    </g>
    <g id="ytick_10">
     <g id="line2d_45">
      <path d="M 47.336875 200.974252 
L 716.936875 200.974252 
" clip-path="url(#p336f924e17)" style="fill: none; stroke: #cccccc; stroke-width: 0.8; stroke-linecap: round"/>
     </g>
     <g id="line2d_46"/>
     <g id="text_29">
      <text style="font-size: 10px; font-family: 'Arial', 'Liberation Sans', 'DejaVu Sans', 'Bitstream Vera Sans', sans-serif; text-anchor: start; fill: #008000" x="720.436875" y="204.773471" transform="rotate(-0 720.436875 204.773471)">94</text>
     </g>
    </g>
    <g id="ytick_11">
     <g id="line2d_47">
      <path d="M 47.336875 138.799863 
L 716.936875 138.799863 
" clip-path="url(#p336f924e17)" style="fill: none; stroke: #cccccc; stroke-width: 0.8; stroke-linecap: round"/>
     </g>
     <g id="line2d_48"/>
     <g id="text_30">
      <text style="font-size: 10px; font-family: 'Arial', 'Liberation Sans', 'DejaVu Sans', 'Bitstream Vera Sans', sans-serif; text-anchor: start; fill: #008000" x="720.436875" y="142.599082" transform="rotate(-0 720.436875 142.599082)">96</text>
     </g>
    </g>
    <g id="ytick_12">
     <g id="line2d_49">
      <path d="M 47.336875 76.625475 
L 716.936875 76.625475 
" clip-path="url(#p336f924e17)" style="fill: none; stroke: #cccccc; stroke-width: 0.8; stroke-linecap: round"/>
     </g>
     <g id="line2d_50"/>
     <g id="text_31">
      <text style="font-size: 10px; font-family: 'Arial', 'Liberation Sans', 'DejaVu Sans', 'Bitstream Vera Sans', sans-serif; text-anchor: start; fill: #008000" x="720.436875" y="80.424694" transform="rotate(-0 720.436875 80.424694)">98</text>
     </g>
    </g>
    <g id="text_32">
     <text style="font-size: 14px; font-family: 'Arial', 'Liberation Sans', 'DejaVu Sans', 'Bitstream Vera Sans', sans-serif; text-anchor: middle; fill: #008000" x="747.799688" y="279.159" transform="rotate(-90 747.799688 279.159)">Heat Tolerance Index</text>
    </g>
   </g>
   <g id="line2d_51">
    <path d="M 77.773239 480.759 
L 83.921999 471.433156 
L 90.070759 462.293822 
L 96.21952 453.337269 
L 102.36828 444.559841 
L 108.51704 435.957955 
L 114.665801 427.528102 
L 120.814561 419.26684 
L 126.963321 411.170797 
L 133.112082 403.23667 
L 139.260842 395.46122 
L 145.409602 387.841274 
L 151.558363 380.373722 
L 157.707123 373.055515 
L 163.855883 365.883668 
L 170.004644 358.855253 
L 176.153404 351.967402 
L 182.302164 345.217303 
L 188.450925 338.602201 
L 194.599685 332.119397 
L 200.748445 325.766245 
L 206.897206 319.540151 
L 213.045966 313.438576 
L 219.194726 307.459027 
L 225.343487 301.599066 
L 231.492247 295.856299 
L 237.641007 290.228385 
L 243.789768 284.713024 
L 249.938528 279.307968 
L 256.087288 274.011008 
L 262.236049 268.819985 
L 268.384809 263.732778 
L 274.533569 258.747312 
L 280.68233 253.861552 
L 286.83109 249.073504 
L 292.97985 244.381214 
L 299.128611 239.782766 
L 305.277371 235.276284 
L 311.426131 230.859929 
L 317.574892 226.531898 
L 323.723652 222.290424 
L 329.872412 218.133777 
L 336.021173 214.060261 
L 342.169933 210.068212 
L 348.318693 206.156001 
L 354.467454 202.322032 
L 360.616214 198.564739 
L 366.764974 194.88259 
L 372.913735 191.274082 
L 379.062495 187.737741 
L 385.211255 184.272124 
L 391.360015 180.875818 
L 397.508776 177.547435 
L 403.657536 174.285618 
L 409.806296 171.089035 
L 415.955057 167.956382 
L 422.103817 164.886379 
L 428.252577 161.877775 
L 434.401338 158.92934 
L 440.550098 156.039872 
L 446.698858 153.208192 
L 452.847619 150.433143 
L 458.996379 147.713594 
L 465.145139 145.048433 
L 471.2939 142.436574 
L 477.44266 139.876951 
L 483.59142 137.368518 
L 489.740181 134.910252 
L 495.888941 132.50115 
L 502.037701 130.140228 
L 508.186462 127.826523 
L 514.335222 125.559091 
L 520.483982 123.337006 
L 526.632743 121.15936 
L 532.781503 119.025267 
L 538.930263 116.933854 
L 545.079024 114.884267 
L 551.227784 112.875671 
L 557.376544 110.907246 
L 563.525305 108.978188 
L 569.674065 107.087709 
L 575.822825 105.235039 
L 581.971586 103.419421 
L 588.120346 101.640114 
L 594.269106 99.896393 
L 600.417867 98.187544 
L 606.566627 96.512871 
L 612.715387 94.871691 
L 618.864148 93.263333 
L 625.012908 91.687141 
L 631.161668 90.142472 
L 637.310429 88.628695 
L 643.459189 87.145193 
L 649.607949 85.69136 
L 655.75671 84.266602 
L 661.90547 82.870339 
L 668.05423 81.502 
L 674.202991 80.161027 
L 680.351751 78.846872 
L 686.500511 77.559 
" clip-path="url(#p336f924e17)" style="fill: none; stroke: #008000; stroke-width: 3; stroke-linecap: round"/>
   </g>
   <g id="patch_9">
    <path d="M 47.336875 500.919 
L 47.336875 57.399 
" style="fill: none; stroke: #cccccc; stroke-linejoin: miter; stroke-linecap: square"/>
   </g>
   <g id="patch_10">
    <path d="M 716.936875 500.919 
L 716.936875 57.399 
" style="fill: none; stroke: #cccccc; stroke-linejoin: miter; stroke-linecap: square"/>
   </g>
   <g id="patch_11">
    <path d="M 47.336875 500.919 
L 716.936875 500.919 
" style="fill: none; stroke: #cccccc; stroke-linejoin: miter; stroke-linecap: square"/>
   </g>
   <g id="patch_12">
    <path d="M 47.336875 57.399 
L 716.936875 57.399 
" style="fill: none; stroke: #cccccc; stroke-linejoin: miter; stroke-linecap: square"/>
   </g>
  </g>
  <g id="axes_3">
   <g id="matplotlib.axis_4">
    <g id="ytick_13">
     <g id="line2d_52">
      <path d="M 47.336875 460.827472 
L 716.936875 460.827472 
" clip-path="url(#p336f924e17)" style="fill: none; stroke: #cccccc; stroke-width: 0.8; stroke-linecap: round"/>
     </g>
     <g id="line2d_53"/>
     <g id="text_33">
      <text style="font-size: 10px; font-family: 'Arial', 'Liberation Sans', 'DejaVu Sans', 'Bitstream Vera Sans', sans-serif; text-anchor: start; fill: #ff0000" x="780.436875" y="464.626691" transform="rotate(-0 780.436875 464.626691)">40</text>
     </g>
    </g>
    <g id="ytick_14">
     <g id="line2d_54">
      <path d="M 47.336875 406.074834 
L 716.936875 406.074834 
" clip-path="url(#p336f924e17)" style="fill: none; stroke: #cccccc; stroke-width: 0.8; stroke-linecap: round"/>
     </g>
     <g id="line2d_55"/>
     <g id="text_34">
      <text style="font-size: 10px; font-family: 'Arial', 'Liberation Sans', 'DejaVu Sans', 'Bitstream Vera Sans', sans-serif; text-anchor: start; fill: #ff0000" x="780.436875" y="409.874052" transform="rotate(-0 780.436875 409.874052)">50</text>
     </g>
    </g>
    <g id="ytick_15">
     <g id="line2d_56">
      <path d="M 47.336875 351.322195 
L 716.936875 351.322195 
" clip-path="url(#p336f924e17)" style="fill: none; stroke: #cccccc; stroke-width: 0.8; stroke-linecap: round"/>
     </g>
     <g id="line2d_57"/>
     <g id="text_35">
      <text style="font-size: 10px; font-family: 'Arial', 'Liberation Sans', 'DejaVu Sans', 'Bitstream Vera Sans', sans-serif; text-anchor: start; fill: #ff0000" x="780.436875" y="355.121413" transform="rotate(-0 780.436875 355.121413)">60</text>
     </g>
    </g>
    <g id="ytick_16">
     <g id="line2d_58">
      <path d="M 47.336875 296.569556 
L 716.936875 296.569556 
" clip-path="url(#p336f924e17)" style="fill: none; stroke: #cccccc; stroke-width: 0.8; stroke-linecap: round"/>
     </g>
     <g id="line2d_59"/>
     <g id="text_36">
      <text style="font-size: 10px; font-family: 'Arial', 'Liberation Sans', 'DejaVu Sans', 'Bitstream Vera Sans', sans-serif; text-anchor: start; fill: #ff0000" x="780.436875" y="300.368774" transform="rotate(-0 780.436875 300.368774)">70</text>
     </g>
    </g>
    <g id="ytick_17">
     <g id="line2d_60">
      <path d="M 47.336875 241.816917 
L 716.936875 241.816917 
" clip-path="url(#p336f924e17)" style="fill: none; stroke: #cccccc; stroke-width: 0.8; stroke-linecap: round"/>
     </g>
     <g id="line2d_61"/>
     <g id="text_37">
      <text style="font-size: 10px; font-family: 'Arial', 'Liberation Sans', 'DejaVu Sans', 'Bitstream Vera Sans', sans-serif; text-anchor: start; fill: #ff0000" x="780.436875" y="245.616136" transform="rotate(-0 780.436875 245.616136)">80</text>
     </g>
    </g>
    <g id="ytick_18">
     <g id="line2d_62">
      <path d="M 47.336875 187.064278 
L 716.936875 187.064278 
" clip-path="url(#p336f924e17)" style="fill: none; stroke: #cccccc; stroke-width: 0.8; stroke-linecap: round"/>
     </g>
     <g id="line2d_63"/>
     <g id="text_38">
      <text style="font-size: 10px; font-family: 'Arial', 'Liberation Sans', 'DejaVu Sans', 'Bitstream Vera Sans', sans-serif; text-anchor: start; fill: #ff0000" x="780.436875" y="190.863497" transform="rotate(-0 780.436875 190.863497)">90</text>
     </g>
    </g>
    <g id="ytick_19">
     <g id="line2d_64">
      <path d="M 47.336875 132.311639 
L 716.936875 132.311639 
" clip-path="url(#p336f924e17)" style="fill: none; stroke: #cccccc; stroke-width: 0.8; stroke-linecap: round"/>
     </g>
     <g id="line2d_65"/>
     <g id="text_39">
      <text style="font-size: 10px; font-family: 'Arial', 'Liberation Sans', 'DejaVu Sans', 'Bitstream Vera Sans', sans-serif; text-anchor: start; fill: #ff0000" x="780.436875" y="136.110858" transform="rotate(-0 780.436875 136.110858)">100</text>
     </g>
    </g>
    <g id="ytick_20">
     <g id="line2d_66">
      <path d="M 47.336875 77.559 
L 716.936875 77.559 
" clip-path="url(#p336f924e17)" style="fill: none; stroke: #cccccc; stroke-width: 0.8; stroke-linecap: round"/>
     </g>
     <g id="line2d_67"/>
     <g id="text_40">
      <text style="font-size: 10px; font-family: 'Arial', 'Liberation Sans', 'DejaVu Sans', 'Bitstream Vera Sans', sans-serif; text-anchor: start; fill: #ff0000" x="780.436875" y="81.358219" transform="rotate(-0 780.436875 81.358219)">110</text>
     </g>
    </g>
    <g id="text_41">
     <text style="font-size: 14px; font-family: 'Arial', 'Liberation Sans', 'DejaVu Sans', 'Bitstream Vera Sans', sans-serif; text-anchor: middle; fill: #ff0000" x="814.162188" y="279.159" transform="rotate(-90 814.162188 279.159)">Cardiovascular Stress Index</text>
    </g>
   </g>
   <g id="line2d_68">
    <path d="M 77.773239 77.559 
L 83.921999 84.883658 
L 90.070759 92.110328 
L 96.21952 99.240322 
L 102.36828 106.274933 
L 108.51704 113.215437 
L 114.665801 120.063093 
L 120.814561 126.819143 
L 126.963321 133.484812 
L 133.112082 140.061309 
L 139.260842 146.549828 
L 145.409602 152.951546 
L 151.558363 159.267623 
L 157.707123 165.499205 
L 163.855883 171.647423 
L 170.004644 177.713392 
L 176.153404 183.698211 
L 182.302164 189.602968 
L 188.450925 195.428732 
L 194.599685 201.176561 
L 200.748445 206.847497 
L 206.897206 212.442569 
L 213.045966 217.962791 
L 219.194726 223.409166 
L 225.343487 228.78268 
L 231.492247 234.084309 
L 237.641007 239.315014 
L 243.789768 244.475744 
L 249.938528 249.567436 
L 256.087288 254.591012 
L 262.236049 259.547384 
L 268.384809 264.437451 
L 274.533569 269.2621 
L 280.68233 274.022206 
L 286.83109 278.718633 
L 292.97985 283.352233 
L 299.128611 287.923845 
L 305.277371 292.4343 
L 311.426131 296.884415 
L 317.574892 301.274997 
L 323.723652 305.606844 
L 329.872412 309.88074 
L 336.021173 314.097461 
L 342.169933 318.257772 
L 348.318693 322.362428 
L 354.467454 326.412173 
L 360.616214 330.407741 
L 366.764974 334.349858 
L 372.913735 338.239238 
L 379.062495 342.076587 
L 385.211255 345.862601 
L 391.360015 349.597967 
L 397.508776 353.283362 
L 403.657536 356.919455 
L 409.806296 360.506905 
L 415.955057 364.046364 
L 422.103817 367.538472 
L 428.252577 370.983864 
L 434.401338 374.383165 
L 440.550098 377.73699 
L 446.698858 381.045949 
L 452.847619 384.310642 
L 458.996379 387.53166 
L 465.145139 390.709589 
L 471.2939 393.845004 
L 477.44266 396.938474 
L 483.59142 399.990561 
L 489.740181 403.001818 
L 495.888941 405.972791 
L 502.037701 408.904019 
L 508.186462 411.796034 
L 514.335222 414.649361 
L 520.483982 417.464516 
L 526.632743 420.242011 
L 532.781503 422.98235 
L 538.930263 425.686029 
L 545.079024 428.353539 
L 551.227784 430.985363 
L 557.376544 433.58198 
L 563.525305 436.14386 
L 569.674065 438.671468 
L 575.822825 441.165263 
L 581.971586 443.625696 
L 588.120346 446.053214 
L 594.269106 448.448257 
L 600.417867 450.81126 
L 606.566627 453.142651 
L 612.715387 455.442854 
L 618.864148 457.712285 
L 625.012908 459.951357 
L 631.161668 462.160475 
L 637.310429 464.340039 
L 643.459189 466.490447 
L 649.607949 468.612086 
L 655.75671 470.705343 
L 661.90547 472.770597 
L 668.05423 474.808223 
L 674.202991 476.818589 
L 680.351751 478.802062 
L 686.500511 480.759 
" clip-path="url(#p336f924e17)" style="fill: none; stroke: #ff0000; stroke-width: 3; stroke-linecap: round"/>
   </g>
   <g id="patch_13">
    <path d="M 47.336875 500.919 
L 47.336875 57.399 
" style="fill: none; stroke: #cccccc; stroke-linejoin: miter; stroke-linecap: square"/>
   </g>
   <g id="patch_14">
    <path d="M 776.936875 500.919 
L 776.936875 57.399 
" style="fill: none; stroke: #cccccc; stroke-linejoin: miter; stroke-linecap: square"/>
   </g>
   <g id="patch_15">
    <path d="M 47.336875 500.919 
L 716.936875 500.919 
" style="fill: none; stroke: #cccccc; stroke-linejoin: miter; stroke-linecap: square"/>
   </g>
   <g id="patch_16">
    <path d="M 47.336875 57.399 
L 716.936875 57.399 
" style="fill: none; stroke: #cccccc; stroke-linejoin: miter; stroke-linecap: square"/>
   </g>
  </g>
 </g>
 <defs>
  <clipPath id="p336f924e17">
   <rect x="47.336875" y="57.399" width="669.6" height="443.52"/>
  </clipPath>
 </defs>
</svg>
